<svg width="32" height="32" viewBox="0 0 32 32" fill="none" xmlns="http://www.w3.org/2000/svg">
<path d="M11.4312 3.86614L22.6646 15.0661C22.7979 15.1995 22.8921 15.3439 22.9473 15.4995C23.0033 15.655 23.0312 15.8217 23.0312 15.9995C23.0312 16.1773 23.0033 16.3439 22.9473 16.4995C22.8921 16.655 22.7979 16.7995 22.6646 16.9328L11.4312 28.1661C11.1201 28.4773 10.7312 28.6328 10.2646 28.6328C9.79792 28.6328 9.39792 28.4661 9.06458 28.1328C8.73125 27.7995 8.56458 27.4106 8.56458 26.9661C8.56458 26.5217 8.73125 26.1328 9.06458 25.7995L18.8646 15.9995L9.06458 6.19948C8.75347 5.88837 8.59792 5.50526 8.59792 5.05014C8.59792 4.59414 8.76458 4.19948 9.09792 3.86614C9.43125 3.53281 9.82014 3.36614 10.2646 3.36614C10.709 3.36614 11.0979 3.53281 11.4312 3.86614Z" fill="#121212"/>
</svg>
